<?xml version="1.0" encoding="UTF-8" standalone="no"?><svg version="1.1" xmlns="http://www.w3.org/2000/svg" viewBox="0 0 17 17"><defs><filter id="a" width="17.358" height="19.722" x=".353" y="-.666" filterUnits="userSpaceOnUse"><feColorMatrix values="1 0 0 0 0 0 1 0 0 0 0 0 1 0 0 0 0 0 1 0"/></filter></defs><mask id="b" width="17.358" height="19.722" x=".353" y="-.666" maskUnits="userSpaceOnUse"><path fill="#FDBF5A" d="M16.079.14L.726 5.797a.5747.5747 0 00-.37.596c.027.261.227.47.487.506l8.06 1.151 1.151 8.062c.036.26.245.461.505.488.176.02.346-.046.465-.164.057-.059.103-.127.131-.207L16.812.874a.5712.5712 0 00-.733-.734z" filter="url(#a)"/></mask><g mask="url(#b)"><path fill="#FDBF5A" d="M16.079.14L.726 5.797a.5747.5747 0 00-.37.596c.027.261.227.47.487.506l8.06 1.151 1.151 8.062c.036.26.245.461.505.488.176.02.346-.046.465-.164.057-.059.103-.127.131-.207L16.812.874a.5712.5712 0 00-.733-.734z"/><path fill="#E5AB4C" d="M17.711-.666l-9 9c.5 3.334 1.5 10.102 1.5 10.501s4 .167 6 0l1.5-19.501z"/></g></svg>