<?xml version="1.0" encoding="UTF-8" standalone="no"?><svg version="1.1" xmlns="http://www.w3.org/2000/svg" fill="none" viewBox="0 0 61 61"><path fill="#FDBF5A" fill-rule="evenodd" d="M30.5 61C47.3447 61 61 47.3447 61 30.5c0-3.5374-.6022-6.9342-1.7097-10.0934L20.4066 59.2903C23.5658 60.3978 26.9626 61 30.5 61zM5.8537 48.4705l14.9652-14.9652L3.5395 16.2258C1.2799 20.4847 0 25.3429 0 30.5c0 6.719 2.1726 12.9306 5.8537 17.9705zm10.3721-44.931l17.2795 17.2794L48.4705 5.8537C43.4306 2.1727 37.219 0 30.5 0c-5.1571 0-10.0153 1.28-14.2742 3.5395z" clip-rule="evenodd"/><path stroke="#FDBF5A" stroke-width="4" d="M10.0534 10.1304l3.774 3.774M18.127 48.8897l-3.7741 3.774M24.8549 41.7133l-3.774 3.774M31.5828 34.5367l-3.774 3.7741M45.0387 20.1838l-3.774 3.7741M51.7667 13.0073l-3.7741 3.774M17.0441 17.0441l3.774 3.774M24.6691 24.6691l3.774 3.774M38.3108 27.3604l-3.774 3.774"/></svg>