<?xml version="1.0" encoding="UTF-8" standalone="no"?><svg version="1.1" xmlns="http://www.w3.org/2000/svg" fill="none" viewBox="0 0 196 25"><path fill="#fff" d="M16.6458.16l-1.8 6.012h-8.712l1.656-5.94 8.856-.072zm6.768 18.684l-5.04 6.12H.8778l4.644-16.416h8.748l-2.88 10.26 12.024.036zm27.669-12.636h-23.724c.48-1.632 1.296-3.012 2.448-4.14C31.2228.7 32.6868.016 34.1988.016h12.24c3.096 0 4.644 1.644 4.644 4.932v1.26zm-.504 2.304l-.144.576c-.384 1.248-1.044 3.528-1.98 6.84-.6 2.088-1.524 3.84-2.772 5.256-2.256 2.544-5.28 3.816-9.072 3.816h-4.284c-2.304 0-4.128-.432-5.472-1.296-1.656-1.032-2.484-2.628-2.484-4.788 0-1.152.18-2.376.54-3.672l1.8-6.66h8.388l-2.484 8.748c-.096.408-.144.72-.144.936 0 .48.216.78.648.9h5.22c.648-.168 1.128-.78 1.44-1.836l2.592-8.784 8.208-.036zM76.5149.16l-1.728 6.048h-23.364L55.2749.16h21.24zm-2.232 8.388l-1.98 6.588h-11.556l-2.7 9.828h-9.468l4.572-16.416h21.132zM102.46.16l-1.656 5.976H76.8276L80.6436.16H102.46zm-9.3244 8.388l-4.356 16.416h-8.244l4.464-16.416h8.136z"/><path fill="#FDBF5A" d="M128.792.16l-1.656 5.976H103.16L106.976.16h21.816zm-9.324 8.388l-4.356 16.416h-8.244l4.464-16.416h8.136zm31.516-2.34h-15.552L140.616.16h9.072l1.296 6.048zm4.032 18.756h-9.036l-2.448-9.792h-5.112l-7.236 9.792h-10.548l12.888-16.452h17.964l3.528 16.452zM185.421.196l-5.796 5.976-17.424-.036-1.44-5.868h9.036l.684 2.808 2.664-2.844 12.276-.036zm-8.028 8.352l-4.356 4.788L175.485 25l-9.36-.036-.684-3.024-2.7 3.06h-12.205l12.637-13.968-.504-2.412 14.724-.072zM195.114.16l-1.656 6.048h-8.676L186.51.16h8.604zm-2.196 8.388l-4.5 16.416h-8.748l4.572-16.416h8.676z"/></svg>