<?xml version="1.0" encoding="UTF-8" standalone="no"?><svg version="1.1" xmlns="http://www.w3.org/2000/svg" viewBox="4.531 0 46.031 28"><path fill="#F1F1F1" d="M36.564 0c-3.435 0-6.57 1.25-9.001 3.312 3.036 2.568 4.969 6.4 4.969 10.688s-1.933 8.12-4.969 10.688C29.993 26.749 33.128 28 36.564 28c7.731 0 13.999-6.268 13.999-14S44.295 0 36.564 0zM25.29 22.255c-1.694-2.316-2.706-5.163-2.706-8.255 0-3.091 1.012-5.938 2.707-8.255.658-.9 1.424-1.714 2.272-2.434C25.125 1.249 21.976 0 18.531 0c-7.732 0-14 6.268-14 14s6.268 14 14 14c3.444 0 6.593-1.249 9.031-3.312-.847-.719-1.614-1.534-2.272-2.433z"/><path fill="#E0E0E0" d="M32.531 14c0-4.288-1.933-8.12-4.969-10.688-.848.72-1.614 1.534-2.272 2.434-1.694 2.316-2.707 5.164-2.707 8.255 0 3.092 1.012 5.938 2.706 8.255.658.899 1.425 1.714 2.272 2.434 3.038-2.57 4.97-6.402 4.97-10.69z"/></svg>