<svg version="1.1" id="Layer_1" xmlns="http://www.w3.org/2000/svg" xmlns:xlink="http://www.w3.org/1999/xlink" x="0px" y="0px"
	 width="46.031px" height="28px" viewBox="4.531 0 46.031 28" enable-background="new 4.531 0 46.031 28" xml:space="preserve">
<path fill="#F1F1F1" d="M36.564,0c-3.435,0-6.57,1.25-9.001,3.312c3.036,2.568,4.969,6.4,4.969,10.688s-1.933,8.12-4.969,10.688
	C29.993,26.749,33.128,28,36.564,28c7.731,0,13.999-6.268,13.999-14C50.563,6.268,44.295,0,36.564,0z"/>
<path fill="#F1F1F1" d="M25.29,22.255c-1.694-2.316-2.706-5.163-2.706-8.255c0-3.091,1.012-5.938,2.707-8.255
	c0.658-0.9,1.424-1.714,2.272-2.434C25.125,1.249,21.976,0,18.531,0c-7.732,0-14,6.268-14,14c0,7.732,6.268,14,14,14
	c3.444,0,6.593-1.249,9.031-3.312C26.715,23.969,25.948,23.154,25.29,22.255z"/>
<path fill="#E0E0E0" d="M32.531,14c0-4.288-1.933-8.12-4.969-10.688c-0.848,0.72-1.614,1.534-2.272,2.434
	c-1.694,2.316-2.707,5.164-2.707,8.255c0,3.092,1.012,5.938,2.706,8.255c0.658,0.899,1.425,1.714,2.272,2.434
	C30.599,22.12,32.531,18.288,32.531,14z"/>
</svg>
