<?xml version="1.0" encoding="UTF-8" standalone="no"?><svg version="1.1" xmlns="http://www.w3.org/2000/svg" fill="none" viewBox="0 0 16 19"><path fill="#000" fill-rule="evenodd" d="M11.7974 8.1094c0 1.9322-1.5918 3.4985-3.5555 3.4985-1.9637 0-3.5556-1.5663-3.5556-3.4985 0-1.932 1.592-3.4984 3.5556-3.4984 1.9637 0 3.5555 1.5663 3.5555 3.4984zm-1.7777 0c0 .9661-.796 1.7492-1.7778 1.7492S6.464 9.0756 6.464 8.1095c0-.966.796-1.7492 1.7778-1.7492s1.7778.7832 1.7778 1.7492z" clip-rule="evenodd"/><path fill="#000" fill-rule="evenodd" d="M2.4837 13.5723c-3.2-2.9976-3.3242-7.98-.2777-11.1285C5.2526-.7047 10.3164-.827 13.5163 2.1706c3.1999 2.9976 3.3242 7.98.2777 11.1285L8.2777 19l-5.794-5.4277zm10.0227-1.4793L8.216 16.527l-4.5065-4.2215C1.2207 9.974 1.124 6.0988 3.4935 3.6499c2.3696-2.4488 6.3081-2.544 8.797-.2125 2.4888 2.3315 2.5855 6.2067.2159 8.6556z" clip-rule="evenodd"/></svg>