<?xml version="1.0" encoding="UTF-8" standalone="no"?><svg version="1.1" xmlns="http://www.w3.org/2000/svg" fill="none" viewBox="0 0 16 16"><path fill="#000" fill-rule="evenodd" d="M10.9091 5.8182c0 1.6066-1.3025 2.909-2.9091 2.909-1.6067 0-2.909-1.3024-2.909-2.909C5.091 4.2115 6.3932 2.909 8 2.909c1.6067 0 2.9091 1.3024 2.9091 2.909zm-1.4546 0c0 .8033-.6512 1.4545-1.4545 1.4545-.8033 0-1.4546-.6512-1.4546-1.4545 0-.8033.6513-1.4546 1.4546-1.4546.8033 0 1.4545.6513 1.4545 1.4546z" clip-rule="evenodd"/><path fill="#000" fill-rule="evenodd" d="M8 0C3.5817 0 0 3.5817 0 8s3.5817 8 8 8 8-3.5817 8-8-3.5817-8-8-8zM1.4546 8c0 1.5201.5182 2.9193 1.3876 4.0303 1.196-1.5657 3.0824-2.5758 5.2047-2.5758 2.0948 0 3.9598.9841 5.1578 2.5152.8411-1.1012 1.3408-2.477 1.3408-3.9697 0-3.615-2.9305-6.5454-6.5455-6.5454C4.385 1.4546 1.4546 4.385 1.4546 8zM8 14.5455c-1.5638 0-2.9995-.5484-4.1253-1.4634.9206-1.3139 2.446-2.173 4.1722-2.173 1.7047 0 3.2137.8379 4.1377 2.1243-1.1345.9442-2.5932 1.5121-4.1846 1.5121z" clip-rule="evenodd"/></svg>